<svg width="38" height="38" viewBox="0 0 38 38" fill="none" xmlns="http://www.w3.org/2000/svg">
<mask id="mask0_8_3" style="mask-type:luminance" maskUnits="userSpaceOnUse" x="3" y="4" width="33" height="31">
<path d="M3 4H36V34.8235H3V4Z" fill="white"/>
</mask>
<g mask="url(#mask0_8_3)">
<path d="M25.2038 4.03115C25.1349 4.03115 25.0639 4.03505 24.994 4.03991C22.199 4.50979 20.6621 7.38552 20.4393 9.92172C20.1145 12.2235 21.1568 15.1809 23.7529 15.6965C24.1296 15.7666 24.5213 15.7345 24.8891 15.6372C28.0158 14.6167 29.4148 11.0132 28.9631 8.02857C28.8322 6.10039 27.3383 4.00392 25.2038 4.03018V4.03115ZM13.3545 4.15373C11.6157 4.19557 10.2627 5.91069 9.98691 7.52269C9.40633 10.7175 10.8992 14.6867 14.3198 15.6965C14.6395 15.7646 14.9713 15.7714 15.2951 15.7228C17.6064 15.3482 18.5857 12.8266 18.4887 10.7905C18.4188 8.10445 16.9858 4.99913 14.1199 4.24421C13.8581 4.17708 13.6023 4.1479 13.3545 4.15471V4.15373ZM32.7763 13.2265C29.7695 13.4016 27.709 16.3211 27.4152 19.047C27.0165 21.0121 28.0937 23.6417 30.3991 23.7983C33.6137 23.7604 35.8061 20.4177 35.8971 17.542C36.0999 15.6401 34.9488 13.3315 32.7763 13.2265ZM6.46148 13.8744C5.18241 13.8637 3.92432 14.6089 3.50662 15.8745C2.39144 19.2591 4.63081 23.5454 8.31513 24.2566C9.85201 24.5134 11.203 23.3645 11.5837 21.982C12.3922 19.0246 10.7324 15.5914 7.92441 14.2499C7.46674 13.9999 6.96211 13.8792 6.46148 13.8753V13.8744ZM19.9397 19.943C17.4325 19.9488 14.8853 21.1872 13.2615 23.0298C11.5078 25.1788 10.0718 27.678 9.50926 30.3894C8.82675 32.3419 10.3736 34.5872 12.5181 34.6008C15.0972 34.6708 17.3136 32.947 19.8787 32.8195C22.0541 32.4965 24.0027 33.5978 25.9593 34.3187C27.6251 35.0123 29.9264 34.7467 30.7768 33.0024C31.4463 31.2241 30.461 29.328 29.6456 27.7491C27.9818 25.1866 26.2001 22.4928 23.4721 20.8925C22.3789 20.2329 21.1638 19.941 19.9397 19.943Z" fill="black"/>
</g>
</svg>
