<svg xmlns="http://www.w3.org/2000/svg" xmlns:xlink="http://www.w3.org/1999/xlink" width="500" zoomAndPan="magnify" viewBox="0 0 375 374.999991" height="500" preserveAspectRatio="xMidYMid meet" version="1.0"><defs><clipPath id="c40fbdf0ad"><path d="M 124 125.234375 L 253 125.234375 L 253 249 L 124 249 Z M 124 125.234375 " clip-rule="nonzero"/></clipPath></defs><g clip-path="url(#c40fbdf0ad)"><path fill="#000000" d="M 210.796875 125.359375 C 210.527344 125.359375 210.25 125.375 209.976562 125.394531 C 199.050781 127.28125 193.042969 138.828125 192.171875 149.011719 C 190.902344 158.253906 194.976562 170.128906 205.125 172.199219 C 206.597656 172.480469 208.128906 172.351562 209.566406 171.960938 C 221.789062 167.863281 227.257812 153.394531 225.492188 141.410156 C 224.980469 133.667969 219.140625 125.25 210.796875 125.355469 Z M 164.476562 125.851562 C 157.679688 126.019531 152.390625 132.90625 151.3125 139.378906 C 149.042969 152.207031 154.878906 168.144531 168.25 172.199219 C 169.5 172.472656 170.796875 172.5 172.0625 172.304688 C 181.097656 170.800781 184.925781 160.675781 184.546875 152.5 C 184.273438 141.714844 178.671875 129.246094 167.46875 126.214844 C 166.445312 125.945312 165.445312 125.828125 164.476562 125.855469 Z M 240.398438 162.28125 C 228.644531 162.984375 220.589844 174.707031 219.441406 185.652344 C 217.882812 193.542969 222.09375 204.101562 231.105469 204.730469 C 243.671875 204.578125 252.242188 191.15625 252.597656 179.609375 C 253.390625 171.972656 248.890625 162.703125 240.398438 162.28125 Z M 137.53125 164.882812 C 132.53125 164.839844 127.613281 167.832031 125.980469 172.914062 C 121.621094 186.503906 130.375 203.714844 144.777344 206.570312 C 150.785156 207.601562 156.066406 202.988281 157.554688 197.4375 C 160.714844 185.5625 154.226562 171.777344 143.25 166.390625 C 141.460938 165.386719 139.488281 164.902344 137.53125 164.886719 Z M 190.21875 189.25 C 180.417969 189.273438 170.460938 194.246094 164.113281 201.644531 C 157.257812 210.273438 151.644531 220.308594 149.445312 231.195312 C 146.777344 239.035156 152.824219 248.050781 161.207031 248.105469 C 171.289062 248.386719 179.953125 241.464844 189.980469 240.953125 C 198.484375 239.65625 206.101562 244.078125 213.75 246.972656 C 220.261719 249.757812 229.257812 248.691406 232.582031 241.6875 C 235.199219 234.546875 231.347656 226.933594 228.160156 220.59375 C 221.65625 210.304688 214.691406 199.488281 204.027344 193.0625 C 199.753906 190.414062 195.003906 189.242188 190.21875 189.25 Z M 190.21875 189.25 " fill-opacity="1" fill-rule="nonzero"/></g></svg>